<?xml version="1.0" standalone="no"?>
<!DOCTYPE svg PUBLIC "-//W3C//DTD SVG 20010904//EN"
 "http://www.w3.org/TR/2001/REC-SVG-20010904/DTD/svg10.dtd">
<svg version="1.0" xmlns="http://www.w3.org/2000/svg"
 width="479.000000pt" height="472.000000pt" viewBox="0 0 479.000000 472.000000"
 preserveAspectRatio="xMidYMid meet">

<g transform="translate(0.000000,472.000000) scale(0.100000,-0.100000)"
fill="#000000" stroke="none">
<path d="M443 4705 c0 -18 19 -15 25 3 2 7 -3 12 -10 12 -8 0 -15 -7 -15 -15z"/>
<path d="M483 4700 c3 -11 -1 -23 -7 -28 -7 -4 -19 -17 -25 -30 -7 -14 -18
-21 -27 -18 -9 4 -13 -2 -12 -17 1 -13 -7 -36 -19 -53 -21 -30 -39 -73 -35
-87 1 -4 -4 -10 -11 -13 -9 -3 -12 -16 -10 -37 3 -20 1 -27 -4 -20 -11 16 -10
-205 2 -271 6 -40 6 -48 -5 -41 -9 5 -11 4 -6 -4 4 -6 11 -9 16 -6 4 3 11 -10
14 -28 10 -53 61 -149 105 -199 46 -52 46 -56 -4 -123 -19 -26 -227 -432 -268
-525 -9 -19 -30 -82 -47 -140 -18 -58 -39 -125 -48 -150 -13 -35 -17 -95 -20
-267 -3 -206 -2 -230 23 -357 43 -222 150 -469 279 -646 65 -88 195 -218 284
-282 80 -58 98 -83 67 -94 -8 -4 -15 -12 -15 -20 0 -11 -19 -14 -86 -14 -82 0
-87 -1 -116 -30 -25 -26 -29 -36 -24 -62 9 -47 25 -62 46 -43 9 8 23 15 31 15
8 0 23 6 34 13 73 47 217 54 327 17 48 -17 73 -21 94 -14 l29 8 -27 4 c-16 2
-28 8 -28 13 0 5 -7 9 -16 9 -8 0 -21 6 -29 13 -7 6 -34 30 -60 51 -41 35 -45
41 -29 47 17 7 16 8 -4 8 -59 2 -235 126 -353 248 -82 86 -149 172 -149 193 0
5 -4 10 -10 10 -5 0 -10 4 -10 9 0 6 -13 29 -29 53 -15 24 -35 59 -44 78 -44
100 -77 179 -77 188 0 5 -9 29 -19 53 -11 24 -32 105 -47 179 -26 123 -28 153
-28 330 1 143 5 210 16 250 76 271 91 308 214 553 69 137 140 270 159 296 19
27 35 53 35 60 0 16 15 14 30 -4 7 -8 17 -15 23 -15 6 0 -17 28 -51 63 -75 75
-84 88 -107 152 -10 28 -22 55 -26 60 -4 6 -14 63 -24 127 -17 123 -15 159 20
280 16 55 82 170 122 213 59 64 60 65 18 65 -32 0 -37 -3 -32 -20z"/>
<path d="M1288 4692 c15 -15 43 -47 63 -71 31 -38 38 -42 56 -32 43 22 294 45
498 44 159 0 222 -4 310 -21 192 -37 236 -48 437 -110 109 -34 211 -62 228
-62 17 0 79 23 137 50 323 155 603 137 796 -49 69 -66 119 -158 147 -269 20
-78 27 -226 12 -250 -5 -7 -9 29 -9 80 0 84 -4 100 -34 163 -63 134 -169 205
-304 205 -108 0 -195 -41 -286 -132 -43 -44 -99 -133 -98 -158 0 -8 14 12 31
45 39 75 126 161 203 200 53 26 71 30 145 30 72 0 92 -4 135 -27 110 -58 179
-164 191 -295 10 -108 -26 -215 -104 -310 -44 -54 -168 -119 -247 -128 -120
-15 -256 59 -326 179 -17 28 -27 40 -23 26 10 -36 57 -102 100 -140 139 -122
355 -100 506 51 42 42 46 44 32 17 -37 -72 -130 -152 -249 -214 -86 -45 -99
-67 -103 -172 -3 -78 12 -226 37 -352 5 -25 21 -103 35 -175 52 -262 57 -607
11 -775 -8 -30 -23 -86 -34 -125 -49 -180 -175 -382 -338 -541 -56 -56 -103
-107 -103 -114 0 -17 184 155 228 214 55 72 132 184 132 190 0 2 20 47 44 98
24 51 57 145 74 208 74 285 66 571 -29 1040 -34 171 -45 385 -22 426 7 11 40
36 75 54 135 71 215 145 286 263 63 106 86 193 78 292 -7 92 -10 113 -21 138
-4 9 -5 27 -2 38 3 12 3 18 0 15 -6 -5 -58 95 -65 124 -2 8 -21 34 -43 58 -22
24 -39 52 -37 61 2 12 1 13 -6 3 -6 -10 -14 -8 -33 8 -97 81 -139 100 -311
135 -70 14 -83 14 -138 0 -33 -9 -66 -15 -73 -14 -7 1 -34 1 -62 -1 -35 -1
-44 -4 -30 -9 16 -6 9 -10 -33 -20 -29 -7 -55 -18 -58 -23 -4 -6 -10 -5 -15 3
-7 11 -9 10 -9 -4 0 -14 -6 -16 -27 -11 -18 4 -24 2 -15 -4 19 -13 -60 -46
-91 -38 -22 5 -24 3 -20 -15 6 -20 3 -21 -48 -14 -77 10 -156 38 -151 53 3 9
-7 11 -39 6 -33 -6 -40 -4 -34 6 6 10 4 12 -8 7 -15 -6 -55 3 -102 23 -36 15
-238 58 -329 70 -49 6 -98 16 -109 22 -11 5 -37 7 -58 4 -43 -7 -51 0 -16 14
16 8 10 8 -23 3 -25 -3 -83 -6 -129 -5 -46 0 -125 -5 -175 -13 -50 -7 -94 -11
-98 -8 -12 7 -98 6 -160 -2 -46 -6 -56 -10 -52 -24 3 -9 -2 -6 -13 8 -35 46
-75 81 -94 81 -16 0 -15 -4 9 -28z m2669 -814 c-3 -8 -6 -5 -6 6 -1 11 2 17 5
13 3 -3 4 -12 1 -19z"/>
<path d="M3308 4633 c7 -3 16 -2 19 1 4 3 -2 6 -13 5 -11 0 -14 -3 -6 -6z"/>
<path d="M864 4615 c-100 -27 -183 -91 -235 -181 -42 -73 -36 -90 7 -18 47 79
83 114 148 147 83 42 153 54 228 38 205 -42 349 -229 336 -435 -12 -172 -157
-327 -334 -356 -114 -19 -252 27 -331 108 -50 51 -69 84 -94 162 -10 30 -18
45 -18 33 -1 -13 11 -52 25 -89 35 -86 101 -154 191 -196 62 -28 77 -31 168
-32 91 0 106 3 168 31 170 79 271 264 238 434 -36 182 -182 331 -351 358 -79
13 -82 13 -146 -4z"/>
<path d="M856 4550 c-134 -54 -227 -228 -211 -396 20 -212 190 -345 391 -304
79 16 147 54 196 110 102 116 124 257 60 394 -40 86 -80 127 -164 172 -62 32
-84 38 -148 41 -57 2 -87 -1 -124 -17z m141 -55 c43 -29 47 -112 7 -156 -25
-28 -82 -41 -113 -26 -36 17 -63 73 -57 116 12 79 93 112 163 66z m-179 -161
c2 -11 -4 -27 -14 -34 -14 -12 -18 -12 -29 4 -11 14 -11 22 -2 37 15 25 41 20
45 -7z"/>
<path d="M586 4339 c-14 -39 -25 -109 -24 -154 0 -44 2 -41 9 25 5 41 13 88
19 104 6 16 8 31 5 34 -2 3 -7 -1 -9 -9z"/>
<path d="M3550 4314 c-102 -28 -181 -101 -229 -211 -21 -49 -25 -74 -25 -163
-1 -90 2 -111 21 -146 35 -66 69 -100 128 -128 124 -58 282 -23 379 85 64 71
90 143 90 249 0 72 -4 94 -28 148 -62 136 -200 204 -336 166z m189 -59 c41
-20 57 -66 42 -115 -14 -46 -43 -70 -86 -70 -80 1 -116 110 -56 171 33 32 58
36 100 14z m107 -180 c7 -18 -13 -45 -33 -45 -17 0 -27 24 -19 45 7 20 45 19
52 0z"/>
<path d="M3226 4029 c-3 -17 -5 -43 -5 -58 1 -14 5 -2 10 28 10 58 6 83 -5 30z"/>
<path d="M3222 3900 c0 -19 2 -27 5 -17 2 9 2 25 0 35 -3 9 -5 1 -5 -18z"/>
<path d="M2120 3899 c-222 -23 -493 -120 -674 -242 -204 -136 -524 -430 -646
-592 -67 -90 -154 -249 -205 -377 -89 -226 -108 -493 -50 -698 18 -63 113
-253 144 -288 14 -15 39 -47 55 -70 46 -67 219 -226 314 -289 48 -32 89 -61
92 -65 3 -3 31 -18 63 -32 71 -31 119 -64 112 -77 -4 -5 1 -9 10 -9 9 0 13 4
10 10 -3 6 1 7 9 4 9 -3 13 -11 9 -17 -4 -7 0 -8 13 -3 10 4 15 4 12 0 -4 -4
4 -16 18 -27 19 -14 28 -17 37 -8 8 8 5 11 -11 11 -12 0 -22 4 -22 9 0 12 113
-24 118 -38 2 -6 8 -9 13 -6 18 12 85 -16 86 -36 1 -10 -2 -19 -8 -19 -5 0 -9
4 -9 9 0 14 -41 23 -97 21 -34 -1 -60 4 -75 14 -12 9 -32 15 -43 15 -19 -1
-19 -2 -1 -6 11 -3 26 -11 34 -19 7 -8 31 -14 52 -14 21 0 42 -5 46 -11 3 -6
19 -9 35 -5 15 3 29 2 31 -3 2 -4 21 -11 43 -14 35 -5 38 -4 22 7 -35 27 1 26
180 -3 89 -15 87 -15 95 -31 5 -12 8 -10 14 8 4 13 10 19 13 13 4 -6 40 16 86
53 44 34 105 76 135 93 30 16 79 45 107 63 29 18 83 43 120 56 38 12 58 23 45
23 -13 1 -20 5 -17 11 3 6 35 10 70 10 35 0 67 5 70 10 3 6 18 10 33 10 21 0
24 2 12 10 -13 8 -12 10 3 10 11 0 33 10 50 22 45 30 157 144 157 159 0 8 -9
4 -22 -8 -39 -34 -91 -61 -133 -67 -28 -5 -44 -14 -50 -29 -7 -14 -51 -42
-125 -79 -137 -68 -482 -208 -514 -208 -48 0 -266 53 -361 87 -55 20 -102 38
-103 39 -2 1 -6 20 -9 42 -5 38 -9 42 -83 82 -69 37 -200 149 -200 170 0 4
-13 22 -29 39 -16 18 -35 48 -41 67 -17 49 -21 38 -7 -16 13 -49 77 -149 123
-191 31 -29 101 -69 121 -69 6 0 15 -4 18 -10 9 -14 -39 -7 -105 15 -62 20
-138 67 -207 129 -27 23 -60 51 -74 61 -27 22 -99 100 -139 154 -14 19 -33 42
-43 53 -66 70 -147 295 -147 407 l0 67 93 28 c50 16 113 39 139 52 26 13 56
25 66 27 11 1 49 22 86 46 37 24 69 41 72 38 3 -3 -2 -34 -10 -69 -9 -34 -25
-108 -37 -163 -12 -55 -26 -103 -31 -106 -12 -8 -1 -176 11 -184 5 -2 6 17 4
43 -2 26 5 97 17 157 12 61 24 126 27 145 3 19 9 40 14 46 6 7 9 16 7 20 -1 5
4 40 12 77 10 49 20 71 34 79 11 6 26 16 32 22 6 6 22 18 34 26 12 8 38 27 58
43 40 31 52 35 28 8 -28 -31 -56 -118 -63 -197 -7 -84 -11 -82 75 -42 l42 20
29 -31 c34 -37 47 -38 78 -9 l24 22 50 -27 c61 -33 64 -28 56 84 -14 183 -105
272 -233 228 -22 -7 -42 -13 -45 -14 -6 0 -21 -10 -103 -71 -71 -52 -217 -144
-230 -144 -19 0 19 37 100 98 66 50 88 72 86 87 -3 12 12 34 45 63 42 39 41
41 -5 7 -8 -5 -25 -20 -38 -33 -44 -40 -134 -105 -139 -100 -5 5 111 128 120
128 8 0 70 64 68 70 -1 3 11 20 28 39 16 19 28 39 25 45 -3 7 -5 6 -5 -2 -1
-7 -6 -10 -12 -7 -7 5 -6 12 4 23 8 10 17 37 21 62 l6 45 -26 -55 c-14 -30
-35 -75 -47 -100 -30 -65 -298 -316 -418 -393 -68 -43 -140 -80 -145 -74 -9 8
37 180 72 269 44 113 93 204 152 282 98 128 465 476 582 552 25 16 56 39 69
51 40 36 217 118 341 158 152 49 302 64 462 47 227 -26 335 -70 507 -206 123
-99 145 -128 246 -330 52 -105 95 -199 95 -208 0 -10 10 -28 21 -39 38 -38 70
-199 48 -240 -6 -12 -6 -19 0 -19 5 0 12 6 14 13 8 19 27 -13 27 -48 0 -20
-11 -41 -37 -68 -28 -29 -32 -36 -15 -27 13 6 26 10 28 7 3 -3 2 -57 -2 -120
l-7 -115 -24 9 c-32 12 -33 12 -33 -6 0 -8 9 -15 20 -15 12 0 25 -10 32 -25
20 -45 -22 -203 -93 -349 -47 -96 -61 -115 -158 -218 -41 -43 -70 -78 -65 -78
13 0 127 109 149 143 27 41 28 27 4 -39 -51 -136 -180 -286 -287 -335 -35 -16
-61 -33 -58 -37 3 -5 31 -12 63 -15 32 -4 84 -15 116 -24 l58 -18 98 95 c178
172 268 310 336 514 33 98 60 252 64 367 5 145 -39 468 -85 614 -66 209 -200
469 -330 640 -163 214 -421 348 -721 374 -135 12 -151 12 -273 0z m-582 -1255
c28 -19 29 -57 2 -84 -24 -24 -43 -25 -64 -4 -26 25 -31 62 -11 84 22 24 43
25 73 4z m-376 -72 c-45 -41 -120 -88 -92 -59 31 32 115 97 125 97 5 -1 -9
-18 -33 -38z m248 -107 c0 -8 -4 -15 -10 -15 -5 0 -10 7 -10 15 0 8 5 15 10
15 6 0 10 -7 10 -15z m-490 -31 c-8 -8 -23 -20 -34 -25 -13 -6 -10 0 9 15 34
29 43 33 25 10z m49 -27 c-18 -12 -102 -47 -105 -44 -2 2 19 15 48 30 28 15
54 25 56 22 3 -3 3 -6 1 -8z m594 -1354 c-7 -2 -19 -2 -25 0 -7 3 -2 5 12 5
14 0 19 -2 13 -5z"/>
<path d="M3231 3844 c0 -11 3 -14 6 -6 3 7 2 16 -1 19 -3 4 -6 -2 -5 -13z"/>
<path d="M4720 3675 c0 -19 11 -19 36 0 18 14 18 14 -8 15 -18 0 -28 -5 -28
-15z"/>
<path d="M4636 3555 c-3 -8 -11 -14 -17 -13 -21 5 -20 -19 1 -25 20 -5 40 16
40 42 0 16 -17 13 -24 -4z"/>
<path d="M1718 3511 c-49 -8 -88 -19 -88 -24 0 -5 8 -6 18 -2 9 4 49 10 89 14
69 7 94 14 76 23 -4 3 -47 -2 -95 -11z"/>
<path d="M4547 3450 c-21 -25 -21 -27 3 -33 22 -6 46 25 35 43 -9 15 -19 12
-38 -10z"/>
<path d="M2600 3450 c0 -5 5 -10 10 -10 6 0 10 5 10 10 0 6 -4 10 -10 10 -5 0
-10 -4 -10 -10z"/>
<path d="M2705 3409 c22 -10 47 -18 55 -19 8 0 -5 9 -29 20 -24 11 -48 20 -55
19 -6 0 7 -9 29 -20z"/>
<path d="M4525 3390 c-2 -3 5 -7 16 -7 10 -1 19 2 19 6 0 9 -29 10 -35 1z"/>
<path d="M2799 3371 c13 -12 28 -21 35 -21 12 0 -5 14 -39 31 -16 8 -15 6 4
-10z"/>
<path d="M4438 3266 c-16 -13 -28 -28 -28 -34 0 -6 -9 -27 -20 -47 -11 -20
-20 -41 -20 -48 0 -7 -13 -26 -30 -42 -16 -15 -27 -31 -25 -36 3 -4 1 -9 -3
-11 -5 -1 -4 -19 1 -38 l9 -35 24 46 c13 26 30 49 38 52 9 4 13 15 11 27 -2
12 1 23 8 26 7 2 13 19 14 37 2 21 12 39 29 54 19 14 25 27 21 42 -2 11 0 22
7 25 6 2 7 5 1 5 -5 1 -22 -10 -37 -23z"/>
<path d="M1832 3185 c0 -16 2 -22 5 -12 2 9 2 23 0 30 -3 6 -5 -1 -5 -18z"/>
<path d="M2492 3098 c22 -84 34 -103 23 -39 -7 42 -31 111 -39 111 -2 0 5 -33
16 -72z"/>
<path d="M2682 3150 c0 -14 2 -19 5 -12 2 6 2 18 0 25 -3 6 -5 1 -5 -13z"/>
<path d="M2691 3115 c1 -19 18 -51 18 -35 0 8 -4 22 -9 30 -5 8 -9 11 -9 5z"/>
<path d="M2711 3050 c-1 -25 19 -90 28 -90 7 0 0 30 -22 90 -5 13 -6 13 -6 0z"/>
<path d="M2520 2997 c0 -21 45 -147 75 -210 l27 -58 -53 -56 c-61 -64 -52 -84
13 -29 23 20 47 36 54 36 12 0 54 -50 54 -64 0 -3 -10 -6 -23 -6 -30 0 -81
-53 -105 -110 -30 -71 -55 -197 -41 -206 5 -3 9 -1 9 5 0 5 9 13 20 16 15 5
26 0 39 -17 l19 -23 29 26 c23 22 32 25 53 17 13 -5 27 -13 30 -17 3 -5 15
-11 26 -15 18 -5 22 -2 28 25 9 48 7 155 -4 184 -6 15 -6 25 -2 23 5 -1 53
-49 106 -106 76 -80 96 -107 91 -122 -4 -12 -2 -20 4 -20 14 0 9 -41 -31 -235
-43 -211 -100 -356 -175 -445 -14 -17 -20 -30 -15 -30 25 0 161 199 182 265 7
22 16 44 21 50 5 5 9 14 9 20 0 5 -11 -3 -25 -20 -18 -22 -24 -26 -25 -13 0 9
4 19 9 23 6 3 10 13 9 23 0 9 7 44 16 77 10 33 28 125 42 205 14 80 29 162 35
182 7 26 6 44 -1 57 -19 37 -10 35 33 -5 44 -43 112 -95 137 -108 8 -4 2 3
-15 16 -89 69 -185 177 -245 278 -14 23 -32 49 -40 58 -9 9 -24 34 -33 54 -10
20 -22 40 -27 43 -6 3 -10 17 -10 30 0 13 -5 27 -11 31 -10 6 -26 38 -50 103
-5 13 -12 21 -15 18 -7 -7 37 -131 48 -135 4 -2 8 -14 8 -27 0 -13 5 -27 10
-30 6 -3 10 -14 10 -23 0 -30 83 -223 94 -219 6 3 19 -2 29 -11 11 -10 17 -11
17 -3 0 6 -7 14 -15 17 -17 7 -65 83 -65 103 0 9 3 9 13 -1 35 -39 98 -146 78
-134 -6 4 -11 3 -11 -3 0 -5 4 -12 9 -15 15 -10 19 -78 4 -83 -9 -4 -10 -10
-3 -23 21 -38 8 -44 -22 -10 -17 19 -73 80 -125 135 -142 153 -201 252 -134
227 14 -5 14 -4 2 11 -10 13 -17 14 -27 6 -9 -8 -17 -4 -30 16 -14 21 -15 28
-5 35 9 5 9 10 3 14 -6 3 -12 0 -15 -6 -6 -16 -37 53 -67 150 -22 70 -30 86
-30 59z m190 -422 c17 -21 4 -82 -20 -95 -29 -15 -64 22 -55 58 13 51 49 69
75 37z m20 -179 c0 -3 -4 -8 -10 -11 -5 -3 -10 -1 -10 4 0 6 5 11 10 11 6 0
10 -2 10 -4z"/>
<path d="M2415 2939 c-4 -18 -3 -35 4 -42 8 -8 11 0 11 31 0 50 -6 54 -15 11z"/>
<path d="M2815 2943 c4 -10 14 -37 22 -61 8 -24 17 -41 19 -39 6 5 -36 117
-43 117 -3 0 -2 -8 2 -17z"/>
<path d="M1833 2870 c0 -30 2 -43 4 -27 2 15 2 39 0 55 -2 15 -4 2 -4 -28z"/>
<path d="M1498 2903 c7 -3 16 -2 19 1 4 3 -2 6 -13 5 -11 0 -14 -3 -6 -6z"/>
<path d="M1575 2893 c11 -3 41 -14 68 -24 26 -10 47 -17 47 -15 0 10 -64 36
-99 40 -20 3 -27 3 -16 -1z"/>
<path d="M1348 2883 c7 -3 16 -2 19 1 4 3 -2 6 -13 5 -11 0 -14 -3 -6 -6z"/>
<path d="M1442 2863 c-15 -6 -102 -88 -102 -97 0 -3 20 4 45 16 28 14 48 31
51 45 3 12 13 23 22 25 10 2 13 6 7 9 -5 4 -16 4 -23 2z"/>
<path d="M1523 2826 c-30 -28 -29 -36 3 -36 34 0 100 -39 159 -95 26 -25 48
-45 49 -45 1 0 1 11 1 24 -2 29 -85 131 -123 150 -50 25 -66 26 -89 2z"/>
<path d="M2870 2805 c0 -11 6 -29 14 -40 7 -11 17 -35 21 -52 3 -18 10 -33 15
-33 5 0 12 -9 15 -20 3 -11 12 -26 18 -33 20 -21 57 -76 57 -83 0 -9 95 -122
124 -147 11 -10 37 -32 58 -50 20 -17 35 -34 32 -39 -3 -4 -1 -8 4 -8 6 0 13
7 16 15 4 11 -3 19 -21 26 -44 17 -161 146 -193 213 -16 34 -25 63 -20 64 15
5 12 31 -4 48 -19 18 -27 18 -20 -1 4 -8 2 -15 -4 -15 -11 0 -72 88 -72 104 0
6 -9 25 -20 41 -17 25 -20 27 -20 10z"/>
<path d="M3230 2803 c0 -4 5 -15 10 -23 8 -13 10 -13 10 2 0 9 -4 20 -10 23
-5 3 -10 3 -10 -2z"/>
<path d="M1120 2776 c0 -9 40 -13 46 -5 3 5 -6 9 -20 9 -14 0 -26 -2 -26 -4z"/>
<path d="M1840 2745 c0 -19 4 -35 8 -35 4 0 6 16 4 35 -2 19 -6 35 -8 35 -2 0
-4 -16 -4 -35z"/>
<path d="M1075 2692 c-6 -4 -23 -23 -40 -42 -16 -19 -21 -27 -9 -17 25 21 48
22 41 2 -4 -8 -1 -17 5 -21 8 -5 9 2 5 23 -3 17 -1 35 5 41 13 13 7 24 -7 14z"/>
<path d="M1852 2660 c0 -14 2 -19 5 -12 2 6 2 18 0 25 -3 6 -5 1 -5 -13z"/>
<path d="M3055 2660 c-3 -5 -1 -10 4 -10 6 0 11 5 11 10 0 6 -2 10 -4 10 -3 0
-8 -4 -11 -10z"/>
<path d="M3276 2633 c-6 -14 -5 -15 5 -6 7 7 10 15 7 18 -3 3 -9 -2 -12 -12z"/>
<path d="M1862 2610 c0 -14 2 -19 5 -12 2 6 2 18 0 25 -3 6 -5 1 -5 -13z"/>
<path d="M1871 2564 c0 -11 3 -14 6 -6 3 7 2 16 -1 19 -3 4 -6 -2 -5 -13z"/>
<path d="M1955 2521 c2 -30 9 -59 15 -65 19 -19 19 0 0 59 l-20 60 5 -54z"/>
<path d="M875 2519 c-4 -6 -5 -12 -2 -15 2 -3 7 2 10 11 7 17 1 20 -8 4z"/>
<path d="M2392 2430 c-1 -43 2 -69 7 -60 4 8 5 42 1 75 l-7 60 -1 -75z"/>
<path d="M2921 2465 c0 -5 8 -26 19 -45 11 -19 19 -30 19 -25 0 6 -8 26 -19
45 -11 19 -19 31 -19 25z"/>
<path d="M1968 2403 c5 -21 7 -23 10 -9 2 10 0 22 -6 28 -6 6 -7 0 -4 -19z"/>
<path d="M2000 2411 c0 -6 4 -13 10 -16 6 -3 7 1 4 9 -7 18 -14 21 -14 7z"/>
<path d="M2026 2367 c3 -10 9 -15 12 -12 3 3 0 11 -7 18 -10 9 -11 8 -5 -6z"/>
<path d="M1992 2320 c0 -14 3 -34 8 -45 l9 -20 -1 20 c0 11 -4 31 -8 45 l-8
25 0 -25z"/>
<path d="M2046 2327 c3 -10 9 -15 12 -12 3 3 0 11 -7 18 -10 9 -11 8 -5 -6z"/>
<path d="M2374 2284 c-9 -34 4 -227 16 -256 7 -17 8 -13 3 17 -4 22 -7 91 -7
152 -1 62 -2 113 -3 113 -2 0 -6 -12 -9 -26z"/>
<path d="M2075 2273 c8 -18 18 -33 20 -33 10 0 4 16 -16 40 l-20 25 16 -32z"/>
<path d="M2434 2275 c4 -16 12 -34 17 -40 5 -5 4 6 -2 25 -15 45 -24 54 -15
15z"/>
<path d="M2461 2204 c0 -11 3 -14 6 -6 3 7 2 16 -1 19 -3 4 -6 -2 -5 -13z"/>
<path d="M2165 2135 c78 -106 110 -145 117 -145 10 0 -103 150 -128 170 -10 8
-5 -3 11 -25z"/>
<path d="M2044 2106 c9 -21 16 -40 16 -42 0 -2 4 -4 10 -4 12 0 -7 48 -28 70
-11 12 -10 6 2 -24z"/>
<path d="M2531 2059 c0 -9 6 -22 14 -29 10 -9 15 -9 15 -1 0 6 -4 11 -9 11 -5
0 -12 8 -14 18 -4 14 -5 14 -6 1z"/>
<path d="M2396 1985 c4 -8 8 -15 10 -15 2 0 4 7 4 15 0 8 -4 15 -10 15 -5 0
-7 -7 -4 -15z"/>
<path d="M1111 1844 c0 -11 3 -14 6 -6 3 7 2 16 -1 19 -3 4 -6 -2 -5 -13z"/>
<path d="M1120 1799 c0 -13 5 -31 10 -39 7 -11 8 -5 4 20 -8 43 -14 51 -14 19z"/>
<path d="M965 1761 c38 -41 134 -111 152 -111 4 0 -8 10 -27 22 -19 12 -37 25
-40 28 -3 3 -32 28 -65 55 l-60 49 40 -43z"/>
<path d="M957 1709 c6 -8 31 -25 55 -38 36 -19 39 -19 19 -3 -38 31 -88 59
-74 41z"/>
<path d="M4664 1641 c-61 -37 -118 -71 -125 -75 -28 -13 -107 -62 -160 -99
-30 -20 -69 -47 -88 -60 -42 -26 -45 -41 -11 -46 33 -4 134 20 119 30 -6 4 9
4 35 2 25 -3 46 -2 46 3 0 5 37 10 82 11 63 2 86 -1 100 -13 14 -13 29 -15 73
-9 l55 6 0 160 c0 87 -3 159 -7 159 -5 -1 -58 -31 -119 -69z"/>
<path d="M2977 1674 c-35 -33 -35 -45 1 -13 15 13 29 25 31 27 2 1 2 4 0 7 -3
2 -17 -7 -32 -21z"/>
<path d="M1916 1611 c-3 -4 6 -6 19 -3 14 2 25 6 25 8 0 8 -39 4 -44 -5z"/>
<path d="M2195 1600 c3 -5 8 -10 11 -10 2 0 4 5 4 10 0 6 -5 10 -11 10 -5 0
-7 -4 -4 -10z"/>
<path d="M2846 1596 c-17 -8 -24 -16 -18 -20 12 -7 52 13 52 26 0 5 -1 8 -2 7
-2 0 -16 -6 -32 -13z"/>
<path d="M2554 1485 c11 -8 26 -15 33 -15 22 0 14 8 -19 19 -30 10 -31 9 -14
-4z"/>
<path d="M2710 1360 c8 -5 26 -9 40 -9 23 0 23 1 5 9 -11 5 -29 9 -40 9 -17 1
-17 -1 -5 -9z"/>
<path d="M1226 1218 c5 -8 2 -9 -9 -5 -9 3 -19 2 -22 -3 -3 -4 6 -7 20 -5 32
3 40 11 20 19 -11 4 -14 2 -9 -6z"/>
<path d="M1070 1150 c14 -11 30 -20 35 -20 6 0 3 -5 -5 -10 -13 -9 -13 -10 0
-10 9 0 78 -18 155 -40 86 -24 217 -50 340 -69 202 -29 289 -34 292 -16 0 6
-3 9 -7 8 -15 -4 -206 16 -340 36 -74 11 -139 21 -145 21 -5 0 -3 5 5 11 11 8
8 9 -15 4 -31 -6 -191 36 -180 47 3 3 -6 3 -21 0 -16 -3 -25 -1 -21 5 3 5 1
15 -5 23 -8 12 -9 12 -4 -2 6 -19 -4 -24 -19 -9 -6 5 -28 16 -50 25 l-40 16
25 -20z"/>
<path d="M1350 1120 c-9 -6 -10 -10 -3 -10 6 0 15 5 18 10 8 12 4 12 -15 0z"/>
<path d="M4700 1115 c-10 -12 -9 -15 8 -15 11 0 34 -3 51 -6 27 -6 31 -4 31
15 0 18 -6 21 -39 21 -22 0 -44 -6 -51 -15z"/>
<path d="M1332 1091 c-11 -6 -10 -10 4 -15 9 -3 19 -4 22 -1 3 3 -1 5 -9 5
-11 0 -11 2 1 10 8 5 11 10 5 10 -5 0 -16 -4 -23 -9z"/>
<path d="M435 1057 c-35 -20 -40 -27 -41 -59 -1 -21 3 -35 8 -32 5 3 15 0 23
-6 24 -20 65 30 65 80 0 22 -3 40 -7 39 -5 0 -26 -10 -48 -22z"/>
<path d="M1679 1031 c24 -22 51 -28 51 -12 0 5 8 12 18 14 9 3 0 5 -20 6 -20
0 -45 4 -55 7 -14 4 -13 1 6 -15z"/>
<path d="M4375 1040 c-16 -7 -17 -9 -3 -9 9 -1 20 4 23 9 7 11 7 11 -20 0z"/>
<path d="M4750 964 c-19 -7 -86 -13 -150 -14 -98 -1 -131 -6 -223 -33 l-108
-32 0 -225 c0 -124 1 -247 2 -275 0 -27 -1 -81 -3 -120 -2 -61 1 -75 22 -107
23 -35 28 -38 75 -38 28 0 57 -5 65 -10 13 -8 13 -13 0 -37 -14 -24 -22 -28
-63 -28 -32 0 -53 -6 -69 -20 l-23 -20 254 -3 c140 -1 256 -1 258 1 2 2 2 222
1 489 l-3 485 -35 -13z"/>
<path d="M485 950 c-3 -5 1 -10 9 -10 9 0 16 5 16 10 0 6 -4 10 -9 10 -6 0
-13 -4 -16 -10z"/>
<path d="M417 903 c-4 -3 -7 -11 -7 -17 0 -6 5 -5 12 2 6 6 9 14 7 17 -3 3 -9
2 -12 -2z"/>
<path d="M467 843 c-4 -3 -7 -11 -7 -17 0 -6 5 -5 12 2 6 6 9 14 7 17 -3 3 -9
2 -12 -2z"/>
<path d="M433 798 c-23 -30 -24 -41 -2 -21 12 12 20 25 17 28 -3 3 -10 0 -15
-7z"/>
<path d="M610 731 c58 -15 120 -35 138 -44 17 -10 32 -15 32 -12 0 18 -205 86
-257 84 -10 0 29 -13 87 -28z"/>
<path d="M930 695 c0 -7 61 -37 66 -33 2 3 -12 12 -31 21 -19 9 -35 15 -35 12z"/>
<path d="M790 667 c0 -4 24 -24 54 -46 29 -22 81 -65 115 -97 34 -31 59 -50
56 -42 -8 21 -225 199 -225 185z"/>
<path d="M1180 526 c0 -2 8 -10 18 -17 15 -13 16 -12 3 4 -13 16 -21 21 -21
13z"/>
</g>
</svg>
